<svg width="27" height="22" viewBox="0 0 27 22" fill="none" xmlns="http://www.w3.org/2000/svg">
<path d="M20.925 4.125C20.5521 4.125 20.25 4.43266 20.25 4.8125C20.25 5.19234 20.5521 5.5 20.925 5.5C21.2979 5.5 21.6 5.19234 21.6 4.8125C21.6 4.43266 21.2979 4.125 20.925 4.125ZM25.874 4.62387L24.3 3.83582V3.4375C24.3 2.30012 23.3917 1.375 22.275 1.375H20.134C19.856 0.574922 19.1059 0 18.225 0C17.1083 0 16.2 0.925117 16.2 2.0625V4.34027C16.1477 4.3248 16.0996 4.29859 16.0456 4.28656C15.4537 4.14133 14.8483 4.22898 14.3184 4.51902C13.9375 4.2741 13.4865 4.13703 12.9883 4.125C12.5335 4.125 12.1049 4.24445 11.7264 4.47391C10.9671 4.01887 9.97059 4.0193 9.21375 4.47176C8.4413 4.00383 7.39589 4.02273 6.63356 4.51473C6.1155 4.22855 5.51306 4.1409 4.90894 4.27109C4.19048 4.43609 3.58383 4.91434 3.23747 5.56703C2.52281 5.60484 1.84275 5.95848 1.37616 6.56047C0.920109 7.15988 0.740813 7.92945 0.864844 8.66379C0.321469 9.15621 0 9.87465 0 10.6429C0 11.4125 0.316406 12.1292 0.851766 12.6195C0.722672 13.3629 0.9045 14.135 1.36308 14.7241C1.81786 15.3265 2.49286 15.6823 3.21005 15.7193C3.41381 16.1103 3.71588 16.4274 4.07109 16.6637C4.077 16.8339 4.08502 17.0045 4.12425 17.1712L5.01525 20.9464C5.16122 21.5643 5.70417 22 6.32812 22H8.75517C9.639 22 10.279 21.1509 10.0638 20.2873L9.20784 16.8468C9.58276 17.0704 10.0095 17.188 10.4439 17.1875C10.892 17.1875 11.3248 17.0655 11.7058 16.8364C12.0922 17.0646 12.5757 17.2043 13.049 17.1811C13.2038 17.1759 13.3515 17.1381 13.5 17.105V20.625C13.5 21.3843 14.1045 22 14.85 22H17.55C18.2955 22 18.9 21.3843 18.9 20.625V15.3325C19.14 15.1766 19.3645 14.9896 19.5488 14.752C20.0049 14.1526 20.1842 13.383 20.0602 12.6487C20.6035 12.1567 20.925 11.4383 20.925 10.67C20.925 10.303 20.8486 9.94941 20.7153 9.62543H24.6232C25.2522 9.62543 25.8386 9.28039 26.1537 8.72223C26.9118 7.36656 27 6.7852 27 6.46551C27 5.67703 26.5688 4.97148 25.874 4.62387ZM6.32812 20.625L5.49197 17.0827C5.87756 17.0745 6.25767 16.9821 6.60488 16.7939C6.98583 17.0427 7.43977 17.1707 7.8975 17.1772L8.75517 20.625H6.32812ZM17.55 20.625H14.85V17.0118C15.2234 17.1102 15.6187 17.1286 16.0152 17.041C16.6535 16.8945 17.1918 16.4918 17.55 15.9487V20.625ZM18.9565 11.7713L18.441 12.0652L18.6587 12.6246C19.0177 13.5433 18.2769 14.517 17.3682 14.3563L16.7708 14.248L16.6008 14.8401C16.3696 15.6492 15.3946 16.045 14.7091 15.4275L14.2265 14.9918L13.7768 15.4623C13.4106 15.8464 12.6951 15.9908 12.1686 15.4816L11.702 15.0292L11.2366 15.4838C10.8017 15.91 10.087 15.9096 9.66895 15.4907L9.20236 15.0214L8.72902 15.4842C8.28225 15.9178 7.5427 15.9019 7.12589 15.464L6.68545 14.9987L6.20283 15.4185C5.4675 16.0557 4.51912 15.6024 4.30186 14.8191L4.13438 14.2192L3.5332 14.3292C2.63883 14.4925 1.89253 13.5261 2.25323 12.5976L2.47092 12.0381L1.95539 11.7442C1.17028 11.2956 1.12683 10.0229 1.96847 9.54078L2.484 9.24687L2.26631 8.68742C1.90519 7.76316 2.65402 6.79508 3.55683 6.95578L4.1542 7.06406L4.32422 6.47195C4.55794 5.65469 5.53711 5.27312 6.21591 5.88457L6.69853 6.32027L7.14825 5.84977C7.56633 5.4102 8.31347 5.39516 8.73281 5.82012L9.20067 6.29148L9.67528 5.82871C10.109 5.40418 10.8249 5.40375 11.2641 5.82957L11.7307 6.28332L12.1973 5.82828C12.6398 5.39645 13.3616 5.38957 13.7991 5.84891L14.2395 6.31297L14.7222 5.89402C15.4562 5.25508 16.4059 5.71098 16.6231 6.49344L16.7906 7.09285L17.3918 6.98285C18.2879 6.81742 19.0316 7.78852 18.6718 8.71449L18.4541 9.27395L18.9696 9.56785C19.7551 10.0164 19.7982 11.2896 18.9565 11.7713ZM24.9817 8.03859C24.9079 8.17094 24.7733 8.25 24.6232 8.25H20.1045C20.1104 7.65145 19.9298 7.06105 19.5619 6.5884C19.1071 5.98598 18.4321 5.6302 17.715 5.59324C17.6685 5.50387 17.6057 5.42695 17.55 5.34445V2.0625C17.55 1.68309 17.8533 1.375 18.225 1.375C18.5967 1.375 18.9 1.68309 18.9 2.0625V2.75H22.275C22.6467 2.75 22.95 3.05809 22.95 3.4375V4.6909L25.2783 5.85793C25.5078 5.97266 25.65 6.20555 25.65 6.46551C25.65 6.60645 25.5091 7.09715 24.9817 8.03859Z" fill="white"/>
</svg>
