<svg width="21" height="22" viewBox="0 0 21 22" fill="none" xmlns="http://www.w3.org/2000/svg">
<path d="M20.471 12.9195L19.0366 12.0845C19.1268 11.3643 19.1268 10.6357 19.0366 9.91555L20.471 9.08048C20.8921 8.83528 21.0953 8.33079 20.9568 7.86067C20.4636 6.18632 19.5856 4.67918 18.4262 3.44314C18.0904 3.0852 17.5546 3.00687 17.1314 3.25322L15.6992 4.087C15.1264 3.64734 14.5007 3.28251 13.837 3.00119V1.33283C13.837 0.839156 13.5004 0.410067 13.024 0.296385C11.3683 -0.0987728 9.63207 -0.0988172 7.97599 0.296385C7.4996 0.410067 7.16299 0.839112 7.16299 1.33283V3.00119C6.49933 3.2825 5.87363 3.64733 5.30076 4.087L3.86856 3.25322C3.44539 3.00687 2.90954 3.0852 2.57381 3.44314C1.4144 4.67918 0.536436 6.18636 0.0432012 7.86067C-0.0953038 8.33079 0.107857 8.83524 0.529046 9.08048L1.96336 9.91555C1.87319 10.6357 1.87319 11.3643 1.96336 12.0845L0.529046 12.9195C0.107857 13.1647 -0.0953038 13.6692 0.0432012 14.1393C0.536436 15.8136 1.4144 17.3208 2.57381 18.5569C2.90958 18.9148 3.44544 18.9931 3.86856 18.7468L5.30076 17.913C5.87362 18.3527 6.49933 18.7175 7.16299 18.9988V20.6672C7.16299 21.1608 7.49956 21.5899 7.97599 21.7036C9.63176 22.0988 11.3679 22.0988 13.024 21.7036C13.5004 21.5899 13.837 21.1609 13.837 20.6672V18.9988C14.5007 18.7175 15.1264 18.3527 15.6992 17.913L17.1314 18.7468C17.5546 18.9932 18.0904 18.9148 18.4262 18.5569C19.5856 17.3208 20.4636 15.8136 20.9568 14.1393C21.0953 13.6692 20.8921 13.1648 20.471 12.9195ZM17.5909 17.3755L15.5541 16.1894C14.3671 17.2127 13.9461 17.4702 12.4295 18.0106V20.3826C11.1566 20.6474 9.84342 20.6474 8.57047 20.3826V18.0106C7.09169 17.4837 6.66356 17.239 5.44591 16.1894L3.40906 17.3755C2.54214 16.3957 1.88331 15.2469 1.4769 14.0064L3.51462 12.8203C3.22719 11.2494 3.22706 10.7514 3.51462 9.1797L1.4769 7.99365C1.88331 6.75308 2.54219 5.60429 3.40906 4.62405L5.44591 5.81099C6.65005 4.77157 7.07608 4.52181 8.57047 3.98937V1.61736C9.84338 1.35212 11.1566 1.35212 12.4295 1.61736V3.98942C13.924 4.5219 14.3501 4.77171 15.5541 5.81103L17.5909 4.62409C18.4578 5.60429 19.1167 6.75308 19.5231 7.99369L17.4854 9.17974C17.7729 10.7511 17.7729 11.2486 17.4854 12.8203L19.5231 14.0064C19.1167 15.2469 18.4579 16.3957 17.5909 17.3755ZM10.5 6.74195C8.17172 6.74195 6.27755 8.6521 6.27755 11C6.27755 13.3479 8.17172 15.2581 10.5 15.2581C12.8283 15.2581 14.7224 13.3479 14.7224 11C14.7224 8.6521 12.8283 6.74195 10.5 6.74195ZM10.5 13.8387C8.94781 13.8387 7.68504 12.5653 7.68504 11C7.68504 9.43474 8.94781 8.16131 10.5 8.16131C12.0522 8.16131 13.315 9.43474 13.315 11C13.315 12.5653 12.0522 13.8387 10.5 13.8387Z" fill="white"/>
</svg>
