<svg width="136" height="136" viewBox="0 0 136 136" fill="none" xmlns="http://www.w3.org/2000/svg">
<circle cx="68" cy="68" r="68" fill="#FFB800"/>
<path d="M99 71.9998C99 77.9998 102.266 83.2952 100.787 82.8025C101.609 85.6769 100.911 91.5489 91.5483 92.0416C90.727 97.1745 86.7439 105.839 77.3816 99.4329C76.1497 102.102 72.563 106.641 67.5265 105.592C62.1481 104.472 59.7246 100.46 58.9034 98.817C56.2343 100.665 50.0338 103.621 46.5845 100.665C43.1352 97.7083 42.6835 92.8629 42.8888 90.8097C39.8093 93.8894 32.4183 98.3242 27.4908 91.4257C24.4039 87.1041 26.2589 81.16 28.7226 80.3387C25.027 80.7493 17.5127 79.5996 17.0198 71.7155C16.6137 65.2203 22.5633 62.2711 25.643 62.4764C24.2056 59.1914 21.7692 53.8425 26.0226 49.5891C30.1909 45.4208 36.1115 46.2731 37.1381 47.5049C37.3428 44.8358 38.1802 40.5577 42.8888 39.6866C47.2504 38.8796 50.4864 40.9184 51.513 41.5344C52.7449 38.8653 56.8101 34.1431 63.2159 36.6068C65.885 34.9643 71.5507 38.5871 75 44.5002C77.9723 42.6182 85.1614 48.2399 88 57.5C92 58.1667 92.7483 52.7 91.5483 57.5C92.1806 57.5 92.7097 57.3895 93.1439 57.2187C95.0598 53.5634 95.5131 56.2872 93.1439 57.2187C93.0968 57.3086 93.0489 57.4023 93 57.5C90.6 62.3 100 70.9998 99 71.9998Z" fill="black"/>
<path d="M56.1808 45.027L65.7981 42.1263C81.4199 38.5037 87.8492 39 102.57 47.6274C105.057 49.0845 104.39 76.1863 99.8638 79.8537C95.338 83.5212 77.6783 83.6903 66.9295 81.8566C58.3305 80.3897 56.1808 73.9106 56.1808 70.8544V53.7398C43.9611 53.7398 41.6605 47.2199 42.0376 43.96L56.1808 45.027Z" fill="#FFB800"/>
<path d="M90.8631 66.4737C90.1426 65.3289 88.1614 63.1918 86 63.8024" stroke="black" stroke-linecap="round"/>
<path d="M92.9247 66.1842C93.2982 65.2363 94.4056 63.2725 95.8472 62.9999" stroke="black" stroke-linecap="round"/>
<path d="M88.5002 66C88.1669 67.3333 88.4002 69.9 92.0002 69.5C95.6002 69.1 95.5001 66.6667 95 65.5" stroke="black" stroke-linecap="round"/>
<path d="M93.8702 77.6048C89.1843 79.9828 86.671 75.4917 86 72.949C87.8688 74.1652 92.1968 75.9816 95.7124 74.4465C95.626 76.0363 94.4483 77.2145 93.8702 77.6048Z" fill="black"/>
<path d="M95.7124 74.4465C92.1968 75.9816 87.8688 74.1652 86 72.949C86.671 75.4917 89.1843 79.9828 93.8702 77.6048C94.4483 77.2145 95.626 76.0363 95.7124 74.4465ZM95.7124 74.4465C96.1921 73.9035 97.1515 72.8174 97.1515 72.8174" stroke="black" stroke-linecap="round"/>
<path d="M76.059 56.9631C75.6482 52.3976 77.2916 45.3418 83.8651 44.0967C88.4794 43.2227 89.2137 48.4626 88.9543 52.1901C88.9181 52.7108 88.8624 53.2019 88.7953 53.6428V58.0008C86.1248 65.0566 76.4699 61.5287 76.059 56.9631Z" fill="black"/>
<ellipse cx="96" cy="56" rx="5" ry="6" fill="black"/>
<ellipse cx="86.9911" cy="55.6733" rx="2.43153" ry="3.47361" fill="#FFB800"/>
<ellipse cx="99.6746" cy="58.4315" rx="1.38944" ry="2.43153" fill="#FFB800"/>
<path d="M107.649 82.507C99.5596 95.4645 87.9653 91.7197 83.1793 88.2277L79.1274 91.0186C93.2146 108.687 106.486 93.1741 111.36 83.2089C110.349 82.9099 108.191 82.3508 107.649 82.507Z" fill="black"/>
<path d="M106.951 82.2493C106.492 81.1515 105.837 78.0957 106.887 74.655C106.904 72.8047 106.859 68.9882 106.546 68.5248C106.156 67.9454 107.973 66.2673 108.96 68.9813C109.75 71.1526 109.133 74.2372 108.726 75.5082C109.777 74.359 112.017 72.3899 112.568 73.7072C112.915 74.5367 112.97 74.9503 112.923 75.1353C113.557 74.6412 114.573 74.3745 114.52 76.6039C115.195 76.5629 116.548 76.9874 116.565 79.0125L121.763 77.9735C122.246 78.0648 122.963 78.5037 121.969 79.5289C120.726 80.8103 115.437 82.3375 113.711 83.5276C111.986 84.7177 109.387 85.2372 108.606 84.0785C107.981 83.1516 107.243 82.4728 106.951 82.2493Z" fill="black"/>
<path d="M112.923 75.1353C112.97 74.9503 112.915 74.5367 112.568 73.7072C112.017 72.3899 109.777 74.359 108.726 75.5082C109.133 74.2372 109.75 71.1526 108.96 68.9813C107.973 66.2673 106.156 67.9454 106.546 68.5248C106.859 68.9882 106.904 72.8047 106.887 74.655C105.837 78.0957 106.492 81.1515 106.951 82.2493C107.243 82.4728 107.981 83.1516 108.606 84.0785C109.387 85.2372 111.986 84.7177 113.711 83.5276C115.437 82.3375 120.726 80.8103 121.969 79.5289C122.963 78.5037 122.246 78.0648 121.763 77.9735L116.565 79.0125C116.548 76.9874 115.195 76.5629 114.52 76.6039C114.573 74.3745 113.557 74.6412 112.923 75.1353ZM112.923 75.1353C112.896 75.2441 112.833 75.2739 112.774 75.2626C112.82 75.2195 112.871 75.1766 112.923 75.1353ZM83.1793 88.2277C87.9653 91.7197 99.5596 95.4645 107.649 82.507C108.191 82.3508 110.349 82.9099 111.36 83.2089C106.486 93.1741 93.2146 108.687 79.1274 91.0186L83.1793 88.2277Z" stroke="black"/>
</svg>
