<svg width="252" height="46" viewBox="0 0 252 46" fill="none" xmlns="http://www.w3.org/2000/svg">
<rect x="0.5" y="0.5" width="251" height="45" rx="22.5" fill="url(#paint0_linear)" stroke="url(#paint1_linear)"/>
<path d="M87.1 23.94C87.2733 23.94 87.4133 24 87.52 24.12C87.64 24.2267 87.7 24.3667 87.7 24.54V29.36C87.7 29.5867 87.6 29.7667 87.4 29.9C86.8 30.3133 86.1333 30.6333 85.4 30.86C84.6667 31.0867 83.92 31.2 83.16 31.2C81.8 31.2 80.5733 30.8867 79.48 30.26C78.3867 29.6333 77.5267 28.7733 76.9 27.68C76.2733 26.5867 75.96 25.36 75.96 24C75.96 22.64 76.2733 21.4133 76.9 20.32C77.5267 19.2267 78.3867 18.3667 79.48 17.74C80.5733 17.1133 81.8 16.8 83.16 16.8C83.8667 16.8 84.5467 16.8867 85.2 17.06C85.8667 17.2333 86.46 17.48 86.98 17.8C87.1667 17.92 87.26 18.0867 87.26 18.3C87.26 18.4733 87.2 18.62 87.08 18.74C86.9733 18.86 86.8467 18.92 86.7 18.92C86.5667 18.92 86.4467 18.8867 86.34 18.82C85.34 18.2733 84.28 18 83.16 18C82.0267 18 81.0067 18.26 80.1 18.78C79.2067 19.3 78.5067 20.02 78 20.94C77.4933 21.8467 77.24 22.8667 77.24 24C77.24 25.1333 77.4933 26.16 78 27.08C78.5067 27.9867 79.2067 28.7 80.1 29.22C81.0067 29.74 82.0267 30 83.16 30C83.7333 30 84.3067 29.92 84.88 29.76C85.4667 29.6 85.9867 29.38 86.44 29.1V25.14H83.28C83.1067 25.14 82.96 25.0867 82.84 24.98C82.72 24.86 82.66 24.7133 82.66 24.54C82.66 24.3667 82.72 24.2267 82.84 24.12C82.96 24 83.1067 23.94 83.28 23.94H87.1ZM99.1263 25.3C99.1263 25.46 99.0663 25.6 98.9463 25.72C98.8263 25.8267 98.6863 25.88 98.5263 25.88H90.9663C90.9663 26.68 91.1263 27.4 91.4463 28.04C91.7796 28.6667 92.2463 29.1667 92.8463 29.54C93.4596 29.9 94.1796 30.08 95.0063 30.08C95.6463 30.08 96.2196 29.9467 96.7263 29.68C97.2329 29.4133 97.6396 29.0733 97.9463 28.66C98.0929 28.54 98.2329 28.48 98.3663 28.48C98.4996 28.48 98.6196 28.5333 98.7263 28.64C98.8329 28.7467 98.8863 28.8667 98.8863 29C98.8863 29.1467 98.8196 29.2867 98.6863 29.42C98.2596 29.94 97.7196 30.3667 97.0663 30.7C96.4263 31.0333 95.7463 31.2 95.0263 31.2C93.9996 31.2 93.0929 30.98 92.3063 30.54C91.5196 30.1 90.9063 29.4867 90.4663 28.7C90.0263 27.9 89.8063 26.98 89.8063 25.94C89.8063 24.8467 90.0196 23.8933 90.4463 23.08C90.8863 22.2533 91.4663 21.6267 92.1863 21.2C92.9063 20.76 93.6729 20.54 94.4863 20.54C95.2863 20.54 96.0329 20.7267 96.7263 21.1C97.4329 21.4733 98.0063 22.02 98.4463 22.74C98.8863 23.46 99.1129 24.3133 99.1263 25.3ZM94.4863 21.7C93.7129 21.7 92.9929 21.9667 92.3263 22.5C91.6729 23.0333 91.2529 23.8 91.0663 24.8H97.8863V24.64C97.8196 24.04 97.6196 23.52 97.2863 23.08C96.9529 22.6267 96.5329 22.2867 96.0263 22.06C95.5329 21.82 95.0196 21.7 94.4863 21.7ZM103.6 21.94V28.64C103.6 29.1467 103.693 29.4933 103.88 29.68C104.066 29.8533 104.313 29.94 104.62 29.94C104.7 29.94 104.8 29.9267 104.92 29.9C105.04 29.86 105.133 29.84 105.2 29.84C105.32 29.84 105.42 29.8933 105.5 30C105.593 30.0933 105.64 30.2067 105.64 30.34C105.64 30.5267 105.533 30.6867 105.32 30.82C105.106 30.94 104.853 31 104.56 31C104.2 31 103.88 30.9667 103.6 30.9C103.32 30.8333 103.046 30.6333 102.78 30.3C102.526 29.9667 102.4 29.4333 102.4 28.7V21.94H100.94C100.78 21.94 100.64 21.8867 100.52 21.78C100.413 21.6733 100.36 21.54 100.36 21.38C100.36 21.22 100.413 21.0867 100.52 20.98C100.64 20.8733 100.78 20.82 100.94 20.82H102.4V18.6C102.4 18.4267 102.453 18.2867 102.56 18.18C102.68 18.06 102.826 18 103 18C103.173 18 103.313 18.06 103.42 18.18C103.54 18.2867 103.6 18.4267 103.6 18.6V20.82H105.6C105.746 20.82 105.873 20.88 105.98 21C106.1 21.12 106.16 21.2533 106.16 21.4C106.16 21.56 106.106 21.6933 106 21.8C105.893 21.8933 105.76 21.94 105.6 21.94H103.6ZM117.926 31.2C116.966 31.2 116.112 31.04 115.366 30.72C114.632 30.4 113.919 29.9 113.226 29.22C113.066 29.0867 112.986 28.9267 112.986 28.74C112.986 28.58 113.046 28.4333 113.166 28.3C113.299 28.1667 113.446 28.1 113.606 28.1C113.766 28.1 113.912 28.1667 114.046 28.3C115.086 29.4467 116.386 30.02 117.946 30.02C118.906 30.02 119.699 29.7933 120.326 29.34C120.966 28.8867 121.286 28.2933 121.286 27.56C121.286 26.9867 121.126 26.5133 120.806 26.14C120.499 25.7533 120.092 25.44 119.586 25.2C119.079 24.96 118.432 24.7133 117.646 24.46C116.792 24.2067 116.072 23.9267 115.486 23.62C114.912 23.3133 114.446 22.9067 114.086 22.4C113.726 21.88 113.546 21.2267 113.546 20.44C113.546 19.7333 113.732 19.1067 114.106 18.56C114.492 18.0133 115.026 17.5867 115.706 17.28C116.399 16.96 117.192 16.8 118.086 16.8C118.899 16.8 119.659 16.94 120.366 17.22C121.086 17.4867 121.659 17.8733 122.086 18.38C122.286 18.6067 122.386 18.8 122.386 18.96C122.386 19.1067 122.319 19.2467 122.186 19.38C122.052 19.5 121.906 19.56 121.746 19.56C121.612 19.56 121.499 19.5133 121.406 19.42C121.046 18.9933 120.566 18.6467 119.966 18.38C119.366 18.1133 118.739 17.98 118.086 17.98C117.112 17.98 116.319 18.2 115.706 18.64C115.092 19.0667 114.786 19.6533 114.786 20.4C114.786 21.1733 115.079 21.7667 115.666 22.18C116.252 22.5933 117.092 22.9733 118.186 23.32C119.132 23.6 119.906 23.8867 120.506 24.18C121.106 24.4733 121.592 24.8933 121.966 25.44C122.352 25.9733 122.546 26.68 122.546 27.56C122.546 28.24 122.346 28.86 121.946 29.42C121.559 29.9667 121.012 30.4 120.306 30.72C119.612 31.04 118.819 31.2 117.926 31.2ZM127.076 21.94V28.64C127.076 29.1467 127.169 29.4933 127.356 29.68C127.543 29.8533 127.789 29.94 128.096 29.94C128.176 29.94 128.276 29.9267 128.396 29.9C128.516 29.86 128.609 29.84 128.676 29.84C128.796 29.84 128.896 29.8933 128.976 30C129.069 30.0933 129.116 30.2067 129.116 30.34C129.116 30.5267 129.009 30.6867 128.796 30.82C128.583 30.94 128.329 31 128.036 31C127.676 31 127.356 30.9667 127.076 30.9C126.796 30.8333 126.523 30.6333 126.256 30.3C126.003 29.9667 125.876 29.4333 125.876 28.7V21.94H124.416C124.256 21.94 124.116 21.8867 123.996 21.78C123.889 21.6733 123.836 21.54 123.836 21.38C123.836 21.22 123.889 21.0867 123.996 20.98C124.116 20.8733 124.256 20.82 124.416 20.82H125.876V18.6C125.876 18.4267 125.929 18.2867 126.036 18.18C126.156 18.06 126.303 18 126.476 18C126.649 18 126.789 18.06 126.896 18.18C127.016 18.2867 127.076 18.4267 127.076 18.6V20.82H129.076C129.223 20.82 129.349 20.88 129.456 21C129.576 21.12 129.636 21.2533 129.636 21.4C129.636 21.56 129.583 21.6933 129.476 21.8C129.369 21.8933 129.236 21.94 129.076 21.94H127.076ZM140.153 20.78C140.327 20.78 140.467 20.84 140.573 20.96C140.693 21.08 140.753 21.2267 140.753 21.4V30.4C140.753 30.5733 140.693 30.72 140.573 30.84C140.467 30.9467 140.327 31 140.153 31C139.98 31 139.833 30.9467 139.713 30.84C139.607 30.72 139.553 30.5733 139.553 30.4V29.06C139.22 29.66 138.72 30.1667 138.053 30.58C137.387 30.9933 136.66 31.2 135.873 31.2C134.98 31.2 134.173 30.9667 133.453 30.5C132.747 30.0333 132.187 29.3933 131.773 28.58C131.373 27.7667 131.173 26.8533 131.173 25.84C131.173 24.8267 131.38 23.92 131.793 23.12C132.207 22.3067 132.767 21.6733 133.473 21.22C134.193 20.7667 134.987 20.54 135.853 20.54C136.653 20.54 137.387 20.7333 138.053 21.12C138.72 21.5067 139.22 22.0133 139.553 22.64V21.4C139.553 21.2267 139.607 21.08 139.713 20.96C139.833 20.84 139.98 20.78 140.153 20.78ZM135.993 30.08C136.687 30.08 137.307 29.9 137.853 29.54C138.413 29.1667 138.847 28.66 139.153 28.02C139.473 27.3667 139.633 26.64 139.633 25.84C139.633 25.0667 139.473 24.36 139.153 23.72C138.847 23.08 138.413 22.58 137.853 22.22C137.307 21.8467 136.687 21.66 135.993 21.66C135.3 21.66 134.673 21.84 134.113 22.2C133.567 22.56 133.133 23.06 132.813 23.7C132.507 24.3267 132.353 25.04 132.353 25.84C132.353 26.64 132.507 27.3667 132.813 28.02C133.12 28.66 133.547 29.1667 134.093 29.54C134.653 29.9 135.287 30.08 135.993 30.08ZM148.665 20.54C148.931 20.54 149.171 20.5933 149.385 20.7C149.598 20.8067 149.705 20.9667 149.705 21.18C149.705 21.3667 149.651 21.52 149.545 21.64C149.438 21.7467 149.311 21.8 149.165 21.8C149.098 21.8 148.965 21.7667 148.765 21.7C148.578 21.6333 148.398 21.6 148.225 21.6C147.731 21.6 147.238 21.7933 146.745 22.18C146.265 22.5533 145.865 23.04 145.545 23.64C145.238 24.24 145.085 24.8467 145.085 25.46V30.4C145.085 30.5733 145.025 30.72 144.905 30.84C144.798 30.9467 144.658 31 144.485 31C144.311 31 144.165 30.9467 144.045 30.84C143.938 30.72 143.885 30.5733 143.885 30.4V21.44C143.885 21.2667 143.938 21.1267 144.045 21.02C144.165 20.9 144.311 20.84 144.485 20.84C144.658 20.84 144.798 20.9 144.905 21.02C145.025 21.1267 145.085 21.2667 145.085 21.44V23.2C145.391 22.44 145.851 21.8133 146.465 21.32C147.091 20.8133 147.825 20.5533 148.665 20.54ZM153.58 21.94V28.64C153.58 29.1467 153.673 29.4933 153.86 29.68C154.047 29.8533 154.293 29.94 154.6 29.94C154.68 29.94 154.78 29.9267 154.9 29.9C155.02 29.86 155.113 29.84 155.18 29.84C155.3 29.84 155.4 29.8933 155.48 30C155.573 30.0933 155.62 30.2067 155.62 30.34C155.62 30.5267 155.513 30.6867 155.3 30.82C155.087 30.94 154.833 31 154.54 31C154.18 31 153.86 30.9667 153.58 30.9C153.3 30.8333 153.027 30.6333 152.76 30.3C152.507 29.9667 152.38 29.4333 152.38 28.7V21.94H150.92C150.76 21.94 150.62 21.8867 150.5 21.78C150.393 21.6733 150.34 21.54 150.34 21.38C150.34 21.22 150.393 21.0867 150.5 20.98C150.62 20.8733 150.76 20.82 150.92 20.82H152.38V18.6C152.38 18.4267 152.433 18.2867 152.54 18.18C152.66 18.06 152.807 18 152.98 18C153.153 18 153.293 18.06 153.4 18.18C153.52 18.2867 153.58 18.4267 153.58 18.6V20.82H155.58C155.727 20.82 155.853 20.88 155.96 21C156.08 21.12 156.14 21.2533 156.14 21.4C156.14 21.56 156.087 21.6933 155.98 21.8C155.873 21.8933 155.74 21.94 155.58 21.94H153.58ZM166.9 25.3C166.9 25.46 166.84 25.6 166.72 25.72C166.6 25.8267 166.46 25.88 166.3 25.88H158.74C158.74 26.68 158.9 27.4 159.22 28.04C159.553 28.6667 160.02 29.1667 160.62 29.54C161.233 29.9 161.953 30.08 162.78 30.08C163.42 30.08 163.993 29.9467 164.5 29.68C165.006 29.4133 165.413 29.0733 165.72 28.66C165.866 28.54 166.006 28.48 166.14 28.48C166.273 28.48 166.393 28.5333 166.5 28.64C166.606 28.7467 166.66 28.8667 166.66 29C166.66 29.1467 166.593 29.2867 166.46 29.42C166.033 29.94 165.493 30.3667 164.84 30.7C164.2 31.0333 163.52 31.2 162.8 31.2C161.773 31.2 160.866 30.98 160.08 30.54C159.293 30.1 158.68 29.4867 158.24 28.7C157.8 27.9 157.58 26.98 157.58 25.94C157.58 24.8467 157.793 23.8933 158.22 23.08C158.66 22.2533 159.24 21.6267 159.96 21.2C160.68 20.76 161.446 20.54 162.26 20.54C163.06 20.54 163.806 20.7267 164.5 21.1C165.206 21.4733 165.78 22.02 166.22 22.74C166.66 23.46 166.886 24.3133 166.9 25.3ZM162.26 21.7C161.486 21.7 160.766 21.9667 160.1 22.5C159.446 23.0333 159.026 23.8 158.84 24.8H165.66V24.64C165.593 24.04 165.393 23.52 165.06 23.08C164.726 22.6267 164.306 22.2867 163.8 22.06C163.306 21.82 162.793 21.7 162.26 21.7ZM177.673 16.2C177.846 16.2 177.986 16.26 178.093 16.38C178.213 16.4867 178.273 16.6267 178.273 16.8V30.4C178.273 30.5733 178.213 30.72 178.093 30.84C177.986 30.9467 177.846 31 177.673 31C177.5 31 177.353 30.9467 177.233 30.84C177.126 30.72 177.073 30.5733 177.073 30.4V29C176.74 29.6133 176.24 30.1333 175.573 30.56C174.92 30.9867 174.193 31.2 173.393 31.2C172.513 31.2 171.713 30.9733 170.993 30.52C170.286 30.0533 169.726 29.4133 169.313 28.6C168.9 27.7867 168.693 26.8733 168.693 25.86C168.693 24.86 168.9 23.9533 169.313 23.14C169.726 22.3267 170.286 21.6933 170.993 21.24C171.713 20.7733 172.506 20.54 173.373 20.54C174.16 20.54 174.886 20.74 175.553 21.14C176.22 21.5267 176.726 22.0333 177.073 22.66V16.8C177.073 16.6267 177.126 16.4867 177.233 16.38C177.353 16.26 177.5 16.2 177.673 16.2ZM173.513 30.08C174.206 30.08 174.826 29.9 175.373 29.54C175.933 29.18 176.366 28.68 176.673 28.04C176.993 27.3867 177.153 26.66 177.153 25.86C177.153 25.0733 176.993 24.36 176.673 23.72C176.366 23.08 175.933 22.58 175.373 22.22C174.826 21.8467 174.206 21.66 173.513 21.66C172.82 21.66 172.193 21.8467 171.633 22.22C171.086 22.58 170.653 23.08 170.333 23.72C170.026 24.36 169.873 25.0733 169.873 25.86C169.873 26.66 170.026 27.38 170.333 28.02C170.653 28.66 171.086 29.1667 171.633 29.54C172.193 29.9 172.82 30.08 173.513 30.08Z" fill="white"/>
<defs>
<linearGradient id="paint0_linear" x1="126" y1="0" x2="126" y2="46" gradientUnits="userSpaceOnUse">
<stop stop-color="#00FFC2"/>
<stop offset="1" stop-color="#00B3FE"/>
</linearGradient>
<linearGradient id="paint1_linear" x1="126" y1="0" x2="126" y2="46" gradientUnits="userSpaceOnUse">
<stop stop-color="#00F6C9"/>
<stop offset="1" stop-color="#00B5FD"/>
</linearGradient>
</defs>
</svg>
