<svg width="29" height="33" viewBox="0 0 29 33" fill="none" xmlns="http://www.w3.org/2000/svg">
<mask id="path-1-outside-1" maskUnits="userSpaceOnUse" x="0" y="0" width="29" height="33" fill="black">
<rect fill="white" width="29" height="33"/>
<path d="M14.8557 17.9185C14.799 17.906 14.7409 17.9038 14.6834 17.9125C14.1078 17.8447 13.6736 17.3521 13.6727 16.7662C13.6727 16.4853 13.4476 16.2577 13.17 16.2577C12.8924 16.2577 12.6673 16.4853 12.6673 16.7662C12.6688 17.7447 13.3158 18.6017 14.2485 18.8607V19.3692C14.2485 19.65 14.4736 19.8777 14.7512 19.8777C15.0288 19.8777 15.2539 19.65 15.2539 19.3692V18.8915C16.3304 18.6636 17.0621 17.6493 16.949 16.5427C16.8356 15.4361 15.9139 14.5951 14.814 14.5949C14.1837 14.5949 13.6727 14.078 13.6727 13.4404C13.6727 12.8028 14.1837 12.2858 14.814 12.2858C15.4443 12.2858 15.9554 12.8028 15.9554 13.4404C15.9554 13.7212 16.1804 13.9489 16.4581 13.9489C16.7357 13.9489 16.9607 13.7212 16.9607 13.4404C16.9593 12.413 16.2477 11.5268 15.2539 11.3148V10.852C15.2539 10.5712 15.0288 10.3435 14.7512 10.3435C14.4736 10.3435 14.2485 10.5712 14.2485 10.852V11.3458C13.2112 11.6324 12.5436 12.6511 12.6864 13.7291C12.8293 14.8072 13.7387 15.6119 14.814 15.6116C15.436 15.6116 15.9433 16.1154 15.9546 16.7443C15.9662 17.3732 15.4772 17.8956 14.8557 17.9185Z"/>
<path d="M7.52456 15.1424C7.52456 19.2148 10.7881 22.516 14.814 22.516C18.8399 22.516 22.1035 19.2148 22.1035 15.1424C22.1035 11.07 18.8399 7.76877 14.814 7.76877C10.7901 7.77324 7.52923 11.072 7.52456 15.1424ZM14.814 8.78575C18.2847 8.78575 21.0981 11.6316 21.0981 15.1424C21.0981 18.6531 18.2847 21.499 14.814 21.499C11.3433 21.499 8.52994 18.6531 8.52994 15.1424C8.53386 11.6333 11.345 8.78973 14.814 8.78575Z"/>
<path d="M24.5815 23.7696L20.6437 25.6516C20.1001 24.6286 19.0571 23.9776 17.9094 23.9449L14.2743 23.8438C13.6987 23.8272 13.1339 23.6797 12.6221 23.4123L12.2522 23.2184C10.3583 22.2198 8.10089 22.2222 6.20894 23.2248L6.23201 22.3772C6.23962 22.0964 6.02092 21.8625 5.74332 21.8548L1.75717 21.7438C1.47956 21.7361 1.24859 21.9573 1.24098 22.2381L1.00019 31.0866C0.992584 31.3674 1.21128 31.6013 1.48889 31.6089L5.47504 31.7199H5.48878C5.76123 31.7199 5.9841 31.5007 5.99147 31.2253L6.003 30.802L7.03857 30.2411C7.44504 30.0199 7.92023 29.9673 8.36426 30.0944L14.5482 31.85C14.559 31.8533 14.5698 31.8557 14.5808 31.8582C15.0278 31.9528 15.4834 32.0002 15.9399 32C16.907 32.0005 17.8628 31.7897 18.7417 31.3815C18.7633 31.3716 18.7842 31.3599 18.8041 31.3468L27.7702 25.4803C27.9936 25.334 28.0657 25.0373 27.9349 24.8029C27.2692 23.6082 25.7929 23.1531 24.5815 23.7696ZM2.01907 30.6064L2.23212 22.7744L5.21314 22.8574L5.00009 30.6895L2.01907 30.6064ZM18.2889 30.4733C17.1969 30.9718 15.9772 31.1094 14.8035 30.8668L8.63622 29.1157C7.94208 28.9173 7.19909 28.9995 6.56411 29.3448L6.03491 29.6316L6.17654 24.4243C7.85347 23.2961 10.0041 23.1801 11.79 24.1214L12.1599 24.3153C12.8065 24.653 13.5195 24.8392 14.2468 24.8605L17.8822 24.9616C18.9032 24.9914 19.7704 25.7268 19.9776 26.7388L14.5627 26.5876C14.2851 26.5799 14.0541 26.8014 14.0462 27.0819C14.0386 27.3628 14.2576 27.5966 14.5349 27.6043L20.5107 27.7707H20.5247C20.7969 27.7704 21.0195 27.5512 21.0269 27.2761C21.033 27.0551 21.0168 26.8339 20.9783 26.6164L25.0172 24.686C25.0211 24.6843 25.0251 24.6823 25.029 24.6803C25.6019 24.3871 26.2946 24.4851 26.7658 24.9263L18.2889 30.4733Z"/>
<path d="M15.3167 6.33914V1.50849C15.3167 1.22768 15.0916 1 14.814 1C14.5364 1 14.3113 1.22768 14.3113 1.50849V6.33914C14.3113 6.61995 14.5364 6.84763 14.814 6.84763C15.0916 6.84763 15.3167 6.61995 15.3167 6.33914Z"/>
<path d="M19.0868 6.33914V4.05094C19.0868 3.77013 18.8618 3.54245 18.5842 3.54245C18.3066 3.54245 18.0815 3.77013 18.0815 4.05094V6.33914C18.0815 6.61995 18.3066 6.84763 18.5842 6.84763C18.8618 6.84763 19.0868 6.61995 19.0868 6.33914Z"/>
<path d="M11.5465 6.33914V4.05094C11.5465 3.77013 11.3215 3.54245 11.0439 3.54245C10.7663 3.54245 10.5412 3.77013 10.5412 4.05094V6.33914C10.5412 6.61995 10.7663 6.84763 11.0439 6.84763C11.3215 6.84763 11.5465 6.61995 11.5465 6.33914Z"/>
</mask>
<path d="M14.8557 17.9185C14.799 17.906 14.7409 17.9038 14.6834 17.9125C14.1078 17.8447 13.6736 17.3521 13.6727 16.7662C13.6727 16.4853 13.4476 16.2577 13.17 16.2577C12.8924 16.2577 12.6673 16.4853 12.6673 16.7662C12.6688 17.7447 13.3158 18.6017 14.2485 18.8607V19.3692C14.2485 19.65 14.4736 19.8777 14.7512 19.8777C15.0288 19.8777 15.2539 19.65 15.2539 19.3692V18.8915C16.3304 18.6636 17.0621 17.6493 16.949 16.5427C16.8356 15.4361 15.9139 14.5951 14.814 14.5949C14.1837 14.5949 13.6727 14.078 13.6727 13.4404C13.6727 12.8028 14.1837 12.2858 14.814 12.2858C15.4443 12.2858 15.9554 12.8028 15.9554 13.4404C15.9554 13.7212 16.1804 13.9489 16.4581 13.9489C16.7357 13.9489 16.9607 13.7212 16.9607 13.4404C16.9593 12.413 16.2477 11.5268 15.2539 11.3148V10.852C15.2539 10.5712 15.0288 10.3435 14.7512 10.3435C14.4736 10.3435 14.2485 10.5712 14.2485 10.852V11.3458C13.2112 11.6324 12.5436 12.6511 12.6864 13.7291C12.8293 14.8072 13.7387 15.6119 14.814 15.6116C15.436 15.6116 15.9433 16.1154 15.9546 16.7443C15.9662 17.3732 15.4772 17.8956 14.8557 17.9185Z" fill="#FFB800"/>
<path d="M7.52456 15.1424C7.52456 19.2148 10.7881 22.516 14.814 22.516C18.8399 22.516 22.1035 19.2148 22.1035 15.1424C22.1035 11.07 18.8399 7.76877 14.814 7.76877C10.7901 7.77324 7.52923 11.072 7.52456 15.1424ZM14.814 8.78575C18.2847 8.78575 21.0981 11.6316 21.0981 15.1424C21.0981 18.6531 18.2847 21.499 14.814 21.499C11.3433 21.499 8.52994 18.6531 8.52994 15.1424C8.53386 11.6333 11.345 8.78973 14.814 8.78575Z" fill="#FFB800"/>
<path d="M24.5815 23.7696L20.6437 25.6516C20.1001 24.6286 19.0571 23.9776 17.9094 23.9449L14.2743 23.8438C13.6987 23.8272 13.1339 23.6797 12.6221 23.4123L12.2522 23.2184C10.3583 22.2198 8.10089 22.2222 6.20894 23.2248L6.23201 22.3772C6.23962 22.0964 6.02092 21.8625 5.74332 21.8548L1.75717 21.7438C1.47956 21.7361 1.24859 21.9573 1.24098 22.2381L1.00019 31.0866C0.992584 31.3674 1.21128 31.6013 1.48889 31.6089L5.47504 31.7199H5.48878C5.76123 31.7199 5.9841 31.5007 5.99147 31.2253L6.003 30.802L7.03857 30.2411C7.44504 30.0199 7.92023 29.9673 8.36426 30.0944L14.5482 31.85C14.559 31.8533 14.5698 31.8557 14.5808 31.8582C15.0278 31.9528 15.4834 32.0002 15.9399 32C16.907 32.0005 17.8628 31.7897 18.7417 31.3815C18.7633 31.3716 18.7842 31.3599 18.8041 31.3468L27.7702 25.4803C27.9936 25.334 28.0657 25.0373 27.9349 24.8029C27.2692 23.6082 25.7929 23.1531 24.5815 23.7696ZM2.01907 30.6064L2.23212 22.7744L5.21314 22.8574L5.00009 30.6895L2.01907 30.6064ZM18.2889 30.4733C17.1969 30.9718 15.9772 31.1094 14.8035 30.8668L8.63622 29.1157C7.94208 28.9173 7.19909 28.9995 6.56411 29.3448L6.03491 29.6316L6.17654 24.4243C7.85347 23.2961 10.0041 23.1801 11.79 24.1214L12.1599 24.3153C12.8065 24.653 13.5195 24.8392 14.2468 24.8605L17.8822 24.9616C18.9032 24.9914 19.7704 25.7268 19.9776 26.7388L14.5627 26.5876C14.2851 26.5799 14.0541 26.8014 14.0462 27.0819C14.0386 27.3628 14.2576 27.5966 14.5349 27.6043L20.5107 27.7707H20.5247C20.7969 27.7704 21.0195 27.5512 21.0269 27.2761C21.033 27.0551 21.0168 26.8339 20.9783 26.6164L25.0172 24.686C25.0211 24.6843 25.0251 24.6823 25.029 24.6803C25.6019 24.3871 26.2946 24.4851 26.7658 24.9263L18.2889 30.4733Z" fill="#FFB800"/>
<path d="M15.3167 6.33914V1.50849C15.3167 1.22768 15.0916 1 14.814 1C14.5364 1 14.3113 1.22768 14.3113 1.50849V6.33914C14.3113 6.61995 14.5364 6.84763 14.814 6.84763C15.0916 6.84763 15.3167 6.61995 15.3167 6.33914Z" fill="#FFB800"/>
<path d="M19.0868 6.33914V4.05094C19.0868 3.77013 18.8618 3.54245 18.5842 3.54245C18.3066 3.54245 18.0815 3.77013 18.0815 4.05094V6.33914C18.0815 6.61995 18.3066 6.84763 18.5842 6.84763C18.8618 6.84763 19.0868 6.61995 19.0868 6.33914Z" fill="#FFB800"/>
<path d="M11.5465 6.33914V4.05094C11.5465 3.77013 11.3215 3.54245 11.0439 3.54245C10.7663 3.54245 10.5412 3.77013 10.5412 4.05094V6.33914C10.5412 6.61995 10.7663 6.84763 11.0439 6.84763C11.3215 6.84763 11.5465 6.61995 11.5465 6.33914Z" fill="#FFB800"/>
<path d="M14.8557 17.9185C14.799 17.906 14.7409 17.9038 14.6834 17.9125C14.1078 17.8447 13.6736 17.3521 13.6727 16.7662C13.6727 16.4853 13.4476 16.2577 13.17 16.2577C12.8924 16.2577 12.6673 16.4853 12.6673 16.7662C12.6688 17.7447 13.3158 18.6017 14.2485 18.8607V19.3692C14.2485 19.65 14.4736 19.8777 14.7512 19.8777C15.0288 19.8777 15.2539 19.65 15.2539 19.3692V18.8915C16.3304 18.6636 17.0621 17.6493 16.949 16.5427C16.8356 15.4361 15.9139 14.5951 14.814 14.5949C14.1837 14.5949 13.6727 14.078 13.6727 13.4404C13.6727 12.8028 14.1837 12.2858 14.814 12.2858C15.4443 12.2858 15.9554 12.8028 15.9554 13.4404C15.9554 13.7212 16.1804 13.9489 16.4581 13.9489C16.7357 13.9489 16.9607 13.7212 16.9607 13.4404C16.9593 12.413 16.2477 11.5268 15.2539 11.3148V10.852C15.2539 10.5712 15.0288 10.3435 14.7512 10.3435C14.4736 10.3435 14.2485 10.5712 14.2485 10.852V11.3458C13.2112 11.6324 12.5436 12.6511 12.6864 13.7291C12.8293 14.8072 13.7387 15.6119 14.814 15.6116C15.436 15.6116 15.9433 16.1154 15.9546 16.7443C15.9662 17.3732 15.4772 17.8956 14.8557 17.9185Z" stroke="#FFB800" stroke-width="0.6" mask="url(#path-1-outside-1)"/>
<path d="M7.52456 15.1424C7.52456 19.2148 10.7881 22.516 14.814 22.516C18.8399 22.516 22.1035 19.2148 22.1035 15.1424C22.1035 11.07 18.8399 7.76877 14.814 7.76877C10.7901 7.77324 7.52923 11.072 7.52456 15.1424ZM14.814 8.78575C18.2847 8.78575 21.0981 11.6316 21.0981 15.1424C21.0981 18.6531 18.2847 21.499 14.814 21.499C11.3433 21.499 8.52994 18.6531 8.52994 15.1424C8.53386 11.6333 11.345 8.78973 14.814 8.78575Z" stroke="#FFB800" stroke-width="0.6" mask="url(#path-1-outside-1)"/>
<path d="M24.5815 23.7696L20.6437 25.6516C20.1001 24.6286 19.0571 23.9776 17.9094 23.9449L14.2743 23.8438C13.6987 23.8272 13.1339 23.6797 12.6221 23.4123L12.2522 23.2184C10.3583 22.2198 8.10089 22.2222 6.20894 23.2248L6.23201 22.3772C6.23962 22.0964 6.02092 21.8625 5.74332 21.8548L1.75717 21.7438C1.47956 21.7361 1.24859 21.9573 1.24098 22.2381L1.00019 31.0866C0.992584 31.3674 1.21128 31.6013 1.48889 31.6089L5.47504 31.7199H5.48878C5.76123 31.7199 5.9841 31.5007 5.99147 31.2253L6.003 30.802L7.03857 30.2411C7.44504 30.0199 7.92023 29.9673 8.36426 30.0944L14.5482 31.85C14.559 31.8533 14.5698 31.8557 14.5808 31.8582C15.0278 31.9528 15.4834 32.0002 15.9399 32C16.907 32.0005 17.8628 31.7897 18.7417 31.3815C18.7633 31.3716 18.7842 31.3599 18.8041 31.3468L27.7702 25.4803C27.9936 25.334 28.0657 25.0373 27.9349 24.8029C27.2692 23.6082 25.7929 23.1531 24.5815 23.7696ZM2.01907 30.6064L2.23212 22.7744L5.21314 22.8574L5.00009 30.6895L2.01907 30.6064ZM18.2889 30.4733C17.1969 30.9718 15.9772 31.1094 14.8035 30.8668L8.63622 29.1157C7.94208 28.9173 7.19909 28.9995 6.56411 29.3448L6.03491 29.6316L6.17654 24.4243C7.85347 23.2961 10.0041 23.1801 11.79 24.1214L12.1599 24.3153C12.8065 24.653 13.5195 24.8392 14.2468 24.8605L17.8822 24.9616C18.9032 24.9914 19.7704 25.7268 19.9776 26.7388L14.5627 26.5876C14.2851 26.5799 14.0541 26.8014 14.0462 27.0819C14.0386 27.3628 14.2576 27.5966 14.5349 27.6043L20.5107 27.7707H20.5247C20.7969 27.7704 21.0195 27.5512 21.0269 27.2761C21.033 27.0551 21.0168 26.8339 20.9783 26.6164L25.0172 24.686C25.0211 24.6843 25.0251 24.6823 25.029 24.6803C25.6019 24.3871 26.2946 24.4851 26.7658 24.9263L18.2889 30.4733Z" stroke="#FFB800" stroke-width="0.6" mask="url(#path-1-outside-1)"/>
<path d="M15.3167 6.33914V1.50849C15.3167 1.22768 15.0916 1 14.814 1C14.5364 1 14.3113 1.22768 14.3113 1.50849V6.33914C14.3113 6.61995 14.5364 6.84763 14.814 6.84763C15.0916 6.84763 15.3167 6.61995 15.3167 6.33914Z" stroke="#FFB800" stroke-width="0.6" mask="url(#path-1-outside-1)"/>
<path d="M19.0868 6.33914V4.05094C19.0868 3.77013 18.8618 3.54245 18.5842 3.54245C18.3066 3.54245 18.0815 3.77013 18.0815 4.05094V6.33914C18.0815 6.61995 18.3066 6.84763 18.5842 6.84763C18.8618 6.84763 19.0868 6.61995 19.0868 6.33914Z" stroke="#FFB800" stroke-width="0.6" mask="url(#path-1-outside-1)"/>
<path d="M11.5465 6.33914V4.05094C11.5465 3.77013 11.3215 3.54245 11.0439 3.54245C10.7663 3.54245 10.5412 3.77013 10.5412 4.05094V6.33914C10.5412 6.61995 10.7663 6.84763 11.0439 6.84763C11.3215 6.84763 11.5465 6.61995 11.5465 6.33914Z" stroke="#FFB800" stroke-width="0.6" mask="url(#path-1-outside-1)"/>
</svg>
