<svg width="20" height="54" viewBox="0 0 20 54" fill="none" xmlns="http://www.w3.org/2000/svg">
<path d="M14.512 3.375C15.2296 3.375 15.7999 3.98535 15.7601 4.71087L14.2323 32.5546C14.1955 33.2253 13.6476 33.75 12.9842 33.75H7.01583C6.3524 33.75 5.80458 33.2253 5.76771 32.5546L4.2399 4.71087C4.2001 3.98535 4.77042 3.375 5.48802 3.375H14.512ZM10 37.125C13.676 37.125 16.6667 40.153 16.6667 43.875C16.6667 47.597 13.676 50.625 10 50.625C6.32396 50.625 3.33333 47.597 3.33333 43.875C3.33333 40.153 6.32396 37.125 10 37.125ZM14.512 0H5.48802C2.8601 0 0.765938 2.24079 0.911771 4.89807L2.43958 32.7418C2.5075 33.9788 3.05042 35.0809 3.88271 35.8706C1.52219 37.7243 0 40.6232 0 43.875C0 49.458 4.48594 54 10 54C15.5141 54 20 49.458 20 43.875C20 40.6232 18.4778 37.7243 16.1173 35.8706C16.9497 35.0809 17.4926 33.9788 17.5604 32.7418L19.0882 4.89807C19.2341 2.24132 17.1404 0 14.512 0Z" fill="white"/>
</svg>
