<svg width="230" height="286" viewBox="0 0 230 286" fill="none" xmlns="http://www.w3.org/2000/svg">
<g filter="url(#filter0_d)">
<path d="M118.617 38.5808C117.232 28.0224 118.669 8.0794 135.313 10.1494C152.139 12.242 148.167 27.8783 144.077 35.4348C148.167 33.1097 157.573 29.5058 162.48 33.691C167.388 37.8762 164.525 46.479 162.48 50.2573C166.862 46.479 176.852 41.1894 181.759 50.2573C186.667 59.3252 180.883 65.6611 177.378 67.6955C188.478 63.6266 208.575 60.3715 200.162 79.9023C198.471 83.8282 196.704 86.8099 194.928 89.033C204.391 88.9862 212.371 91.4351 209.801 99.9562C205.595 113.907 196.365 119.138 192.275 120.01C201.33 122.045 217.513 128.729 209.801 139.192C205.024 145.674 200.448 147.137 197.033 146.689C208.123 152.446 223.087 163.453 219.441 174.94C215.156 188.443 195.735 192.678 188.223 190.478C192.316 194.342 197.211 200.898 196.657 208.073C195.956 217.141 180.591 208.364 172.996 202.842C172.704 209.817 168.44 224.291 153.717 226.383C138.994 228.476 135.313 211.561 135.313 202.842C132.977 212.433 125.149 230.568 112.53 226.383C102.81 223.159 102.864 218.349 105.005 214.981C100.949 219.141 94.6593 223.723 90.6225 220.28C85.7151 216.095 88.5777 210.398 90.6225 208.073C80.3987 212.142 60.8273 217.838 64.3326 208.073C66.257 202.712 69.1497 199.909 71.8508 198.567C59.2236 200.436 41.2746 201.325 40.6713 194.122C39.8691 184.544 44.2075 174.966 53.0141 173.415C37.2233 174.61 10 173.959 10 162.734C10 147.911 24.8974 139.192 32.7844 137.448C25.4817 134.542 11.4021 126.288 13.5053 116.522C15.6085 106.757 28.987 112.454 35.4133 116.522C29.8633 112.744 19.6395 102.921 23.1448 93.8528C26.6501 84.785 40.3791 88.3307 46.8055 91.2371C44.7608 84.8431 40.6713 70.4856 40.6713 64.2079C40.6713 56.5312 55.7668 62.2053 58.8842 67.3533C56.7067 62.884 48.5506 44.8522 55.5688 44.1539C64.3326 43.282 74.8479 50.2573 77.4768 52.873C80.1057 55.4888 73.9731 37.1786 90.6225 35.4348C98.0037 34.6617 101.241 36.7091 102.361 39.3808C103.108 33.7305 105.172 28.2246 109.901 30.2034C116.166 32.825 118.268 36.6784 118.617 38.5808Z" fill="#DBDBDB"/>
<path d="M117.928 40.5271C116.615 30.358 117.977 11.1502 133.749 13.1439C149.693 15.1594 145.929 30.2192 142.054 37.4971C145.93 35.2578 154.843 31.7867 159.493 35.8176C164.143 39.8485 161.431 48.1342 159.493 51.7732C163.645 48.1342 173.112 43.0396 177.762 51.7732C182.413 60.5067 176.932 66.609 173.61 68.5685C184.129 64.6496 203.173 61.5145 195.201 80.3252C193.599 84.1064 191.925 86.9782 190.241 89.1194C199.208 89.0743 206.77 91.4329 204.336 99.6398C200.35 113.076 191.603 118.115 187.727 118.954C196.308 120.914 211.643 127.352 204.336 137.429C199.808 143.672 195.472 145.081 192.236 144.65C202.745 150.195 216.925 160.796 213.47 171.86C209.409 184.864 191.006 188.943 183.887 186.824C187.767 190.546 192.405 196.861 191.879 203.771C191.215 212.504 176.655 204.051 169.458 198.732C169.182 205.45 165.14 219.39 151.189 221.406C137.237 223.421 133.749 207.13 133.749 198.732C131.535 207.97 124.117 225.437 112.159 221.406C102.948 218.301 103 213.668 105.028 210.424C101.185 214.431 95.2247 218.843 91.3994 215.528C86.749 211.497 89.4617 206.01 91.3994 203.771C81.7111 207.69 63.1649 213.176 66.4866 203.771C68.3102 198.607 71.0514 195.907 73.611 194.615C61.6452 196.416 44.6364 197.271 44.0647 190.335C43.3045 181.11 47.4156 171.885 55.761 170.39C40.7973 171.541 15 170.914 15 160.103C15 145.827 29.117 137.429 36.5909 135.75C29.6707 132.951 16.3287 125.001 18.3217 115.595C20.3147 106.19 32.9924 111.676 39.0821 115.595C33.8228 111.956 24.1346 102.495 27.4563 93.7615C30.778 85.0279 43.7879 88.4429 49.8776 91.2422C47.94 85.0839 44.0647 71.2557 44.0647 65.2094C44.0647 57.8158 58.3695 63.2807 61.3236 68.2389C59.2601 63.9344 51.5313 46.5673 58.1819 45.8948C66.4866 45.055 76.4511 51.7732 78.9423 54.2925C81.4335 56.8118 75.6221 39.1767 91.3994 37.4971C98.394 36.7525 101.461 38.7244 102.523 41.2977C103.231 35.8556 105.186 30.5527 109.668 32.4585C115.605 34.9835 117.597 38.6949 117.928 40.5271Z" fill="white"/>
<path d="M182 135.221C173.2 157.621 154 155.221 145.5 151.221L140 156.721C167.2 179.921 183.333 152.054 188 135.221C186.333 135.054 182.8 134.821 182 135.221Z" fill="#F68E3E"/>
<path d="M115.732 188.935C56.9089 185.474 77.0083 130.941 83.6971 101.488C104.455 97.4995 147.494 91.9157 153.583 101.488C161.195 113.453 182.743 192.876 115.732 188.935Z" fill="#F68E3E"/>
<path d="M118.137 180.875C66.034 177.82 83.8372 129.671 89.7619 103.667C108.149 100.145 146.271 95.215 151.664 103.667C158.406 114.231 177.493 184.355 118.137 180.875Z" fill="#F1A652"/>
<path d="M66.3188 83.7948C68.2898 80.2786 81.6493 79.1332 88.0826 79C90.6833 82.3297 93.9137 89.7882 86.0294 92.9848C76.1741 96.9804 63.8549 88.19 66.3188 83.7948Z" fill="#FE6A75"/>
<path d="M168.959 79.5028C167.19 76.7811 152.249 78.3687 145 79.5028C145.246 84.9209 148.244 94.85 158.27 91.2211C170.802 86.685 171.171 82.9049 168.959 79.5028Z" fill="#FE6A75"/>
<path d="M82.5147 96.2028C81.1307 80.9781 86.6669 57.4493 108.812 53.2971C124.356 50.3825 126.83 67.856 125.956 80.2861C129.238 74.7499 137.739 65.6151 145.489 73.3658C155.178 83.0542 159.33 98.9709 148.257 107.967C137.185 116.964 125.421 106.929 125.421 99.6629C116.424 123.192 83.8988 111.427 82.5147 96.2028Z" fill="#999999"/>
<path d="M84.1863 95.3298C82.8891 81.1259 88.0779 59.1746 108.833 55.3008C123.402 52.5817 125.72 68.8836 124.901 80.4803C127.977 75.3153 135.944 66.793 143.208 74.024C152.289 83.0628 156.18 97.9123 145.803 106.305C135.425 114.699 124.399 105.337 124.399 98.5579C115.968 120.509 85.4835 109.534 84.1863 95.3298Z" fill="white"/>
<ellipse cx="135" cy="92" rx="6" ry="7" fill="#151515"/>
<circle cx="139.5" cy="94.5" r="2.5" fill="white"/>
<ellipse cx="113" cy="90.5" rx="9" ry="10.5" fill="#151515"/>
<path d="M123.5 85.5C116 85.8333 100.7 86.5 99.5 86.5L116.5 73.5L123.5 85.5Z" fill="white"/>
<circle cx="120" cy="93" r="3" fill="white"/>
<ellipse cx="122.5" cy="119" rx="2.5" ry="4" fill="#E15F68"/>
<ellipse cx="129.5" cy="119" rx="2.5" ry="4" fill="#E15F68"/>
<path d="M162.729 84.26L78.1064 78C77.3542 88.2436 80.2502 110.438 97.8517 117.267C115.453 124.096 122.862 108.351 124.367 99.6254C124.743 105.696 129.557 118.064 145.805 118.974C162.052 119.885 163.857 96.2109 162.729 84.26Z" fill="#00C1F3"/>
<path d="M156.777 88.1912L87.0876 83C86.4682 91.4947 88.8531 109.9 103.348 115.563C117.844 121.226 123.946 108.17 125.184 100.933C125.494 105.967 129.459 116.224 142.839 116.979C156.219 117.734 157.706 98.1017 156.777 88.1912Z" fill="#0594B9"/>
<path d="M180.836 135.026C179.795 133.463 177.87 128.93 178.495 123.303C177.974 120.437 176.777 114.549 176.153 113.924C175.373 113.142 177.714 110.016 180.056 113.924C181.929 117.05 181.877 122 181.617 124.084C182.917 122 185.831 118.301 187.08 120.176C187.866 121.357 188.075 121.981 188.057 122.28C188.899 121.331 190.406 120.622 190.982 124.084C192.023 123.824 194.26 124.084 194.885 127.21L202.69 124.084C203.47 124.084 204.719 124.553 203.47 126.429C201.909 128.774 194.104 132.682 191.763 135.026C189.421 137.371 185.519 138.934 183.958 137.371C182.709 136.12 181.356 135.287 180.836 135.026Z" fill="#F68E3E" stroke="#F68E3E"/>
<path d="M182.047 126.83C181.647 124.83 183.881 121.663 185.047 120.33C187.047 119.33 188.047 120.83 188.047 121.83C188.047 122.83 182.547 129.33 182.047 126.83Z" fill="#F0AE65"/>
<path d="M189.547 121.33C189.547 122.13 186.214 125.997 184.547 127.83C184.547 131.83 189.547 128.33 191.047 125.33C192.547 122.33 189.547 120.33 189.547 121.33Z" fill="#F0AE65"/>
<path d="M189.047 129.83C191.447 128.63 192.381 125.33 192.547 123.83C193.047 123.83 195.047 125.83 195.047 126.83C195.047 127.83 191.547 131.83 190.547 132.33C189.547 132.83 186.047 131.33 189.047 129.83Z" fill="#F0AE65"/>
<path d="M144.692 156.136C143.609 159.328 140.755 165.209 138.007 163.193C135.259 161.177 134.931 156.881 135.111 154.985C134.056 158.434 131.173 164.741 128.07 162.377C125.276 160.248 125.278 156.572 125.716 154.517C124.856 157.615 122.478 162.642 118.576 161.996C114.402 161.304 114.561 155.506 115.162 152.693C113.441 155.462 109.3 160.3 106.5 157.5C103.7 154.7 105.333 151.333 106.5 150C104.833 151.833 102.247 153.358 98.9998 151.5C96.8298 150.258 96.5 148 98 146C99.2 144.4 104.167 148 106.5 150L115.162 152.693C118.21 153.022 121.959 153.447 125.873 153.9C128.937 154.255 132.101 154.628 135.111 154.985C138.661 155.407 141.995 155.808 144.692 156.136Z" fill="white"/>
<path d="M94 140C94.2592 141.814 96.0851 144.409 100.5 147.021C107.442 151.128 120.784 155.278 144.5 156.5" stroke="#E15F68" stroke-width="3" stroke-linecap="round"/>
<path d="M122.733 121C120.999 123.059 119.052 127.33 125.134 127.948C131.215 128.565 130.335 123.573 129.135 121" stroke="white" stroke-linecap="round"/>
</g>
<path d="M35.1613 263.815C31.6635 259.928 31.7606 257.445 32.2464 256.689L153.861 244.058L200.175 224.95C203.413 231.039 191.376 241.197 184.953 245.516L53.9459 271.426C49.1418 270.508 38.6591 267.701 35.1613 263.815Z" fill="#119ABD"/>
<path d="M178.313 229.97L55.8891 253.775L53.7839 267.863L184.143 242.763L178.313 229.97Z" fill="#00C1F3"/>
<path d="M196.288 222.035C192.402 222.424 182.794 227.595 178.475 230.132L183.981 242.439C191.43 239.038 198.07 230.132 199.365 228.189C200.661 226.245 201.147 221.549 196.288 222.035Z" fill="#43D7FD"/>
<path d="M56.0514 253.451L53.9462 267.863C44.6187 266.697 37.9685 263.491 35.8093 262.033C33.2183 260.414 29.3642 256.43 34.6757 253.451C39.9873 250.471 51.1393 252.209 56.0514 253.451Z" fill="#43D7FD"/>
<circle cx="74.3499" cy="278.065" r="7.9349" fill="white"/>
<circle cx="172.807" cy="260.9" r="7.9349" fill="white"/>
<defs>
<filter id="filter0_d" x="0" y="0" width="230" height="237" filterUnits="userSpaceOnUse" color-interpolation-filters="sRGB">
<feFlood flood-opacity="0" result="BackgroundImageFix"/>
<feColorMatrix in="SourceAlpha" type="matrix" values="0 0 0 0 0 0 0 0 0 0 0 0 0 0 0 0 0 0 127 0"/>
<feOffset/>
<feGaussianBlur stdDeviation="5"/>
<feColorMatrix type="matrix" values="0 0 0 0 0 0 0 0 0 0 0 0 0 0 0 0 0 0 0.4 0"/>
<feBlend mode="normal" in2="BackgroundImageFix" result="effect1_dropShadow"/>
<feBlend mode="normal" in="SourceGraphic" in2="effect1_dropShadow" result="shape"/>
</filter>
</defs>
</svg>
