<svg width="230" height="237" viewBox="0 0 230 237" fill="none" xmlns="http://www.w3.org/2000/svg">
<g filter="url(#filter0_d)">
<path d="M118.617 38.5808C117.232 28.0224 118.669 8.0794 135.313 10.1494C152.139 12.242 148.167 27.8783 144.077 35.4348C148.167 33.1097 157.573 29.5058 162.48 33.691C167.388 37.8762 164.525 46.479 162.48 50.2573C166.862 46.479 176.852 41.1894 181.759 50.2573C186.667 59.3252 180.883 65.6611 177.378 67.6955C188.478 63.6266 208.575 60.3715 200.162 79.9023C198.471 83.8282 196.704 86.8099 194.928 89.033C204.391 88.9862 212.371 91.4351 209.801 99.9562C205.595 113.907 196.365 119.138 192.275 120.01C201.33 122.045 217.513 128.729 209.801 139.192C205.024 145.674 200.448 147.137 197.033 146.689C208.123 152.446 223.087 163.453 219.441 174.94C215.156 188.443 195.735 192.678 188.223 190.478C192.316 194.342 197.211 200.898 196.657 208.073C195.956 217.141 180.591 208.364 172.996 202.842C172.704 209.817 168.44 224.291 153.717 226.383C138.994 228.476 135.313 211.561 135.313 202.842C132.977 212.433 125.149 230.568 112.53 226.383C102.81 223.159 102.864 218.349 105.005 214.981C100.949 219.141 94.6593 223.723 90.6225 220.28C85.7151 216.095 88.5777 210.398 90.6225 208.073C80.3987 212.142 60.8273 217.838 64.3326 208.073C66.257 202.712 69.1497 199.909 71.8508 198.567C59.2236 200.436 41.2746 201.325 40.6713 194.122C39.8691 184.544 44.2075 174.966 53.0141 173.415C37.2233 174.61 10 173.959 10 162.734C10 147.911 24.8974 139.192 32.7844 137.448C25.4817 134.542 11.4021 126.288 13.5053 116.522C15.6085 106.757 28.987 112.454 35.4133 116.522C29.8633 112.744 19.6395 102.921 23.1448 93.8528C26.6501 84.785 40.3791 88.3307 46.8055 91.2371C44.7608 84.8431 40.6713 70.4856 40.6713 64.2079C40.6713 56.5312 55.7668 62.2053 58.8842 67.3533C56.7067 62.884 48.5506 44.8522 55.5688 44.1539C64.3326 43.282 74.8479 50.2573 77.4768 52.873C80.1057 55.4888 73.9731 37.1786 90.6225 35.4348C98.0037 34.6617 101.241 36.7091 102.361 39.3808C103.108 33.7305 105.172 28.2246 109.901 30.2034C116.166 32.825 118.268 36.6784 118.617 38.5808Z" fill="#DBDBDB"/>
<path d="M117.928 40.5271C116.615 30.358 117.977 11.1502 133.749 13.1439C149.693 15.1594 145.929 30.2192 142.054 37.4971C145.93 35.2578 154.843 31.7867 159.493 35.8176C164.143 39.8485 161.431 48.1342 159.493 51.7732C163.645 48.1342 173.112 43.0396 177.762 51.7732C182.413 60.5067 176.932 66.609 173.61 68.5685C184.129 64.6496 203.173 61.5145 195.201 80.3252C193.599 84.1064 191.925 86.9782 190.241 89.1194C199.208 89.0743 206.77 91.4329 204.336 99.6398C200.35 113.076 191.603 118.115 187.727 118.954C196.308 120.914 211.643 127.352 204.336 137.429C199.808 143.672 195.472 145.081 192.236 144.65C202.745 150.195 216.925 160.796 213.47 171.86C209.409 184.864 191.006 188.943 183.887 186.824C187.767 190.546 192.405 196.861 191.879 203.771C191.215 212.504 176.655 204.051 169.458 198.732C169.182 205.45 165.14 219.39 151.189 221.406C137.237 223.421 133.749 207.13 133.749 198.732C131.535 207.97 124.117 225.437 112.159 221.406C102.948 218.301 103 213.668 105.028 210.424C101.185 214.431 95.2247 218.843 91.3994 215.528C86.749 211.497 89.4617 206.01 91.3994 203.771C81.7111 207.69 63.1649 213.176 66.4866 203.771C68.3102 198.607 71.0514 195.907 73.611 194.615C61.6452 196.416 44.6364 197.271 44.0647 190.335C43.3045 181.11 47.4156 171.885 55.761 170.39C40.7973 171.541 15 170.914 15 160.103C15 145.827 29.117 137.429 36.5909 135.75C29.6707 132.951 16.3287 125.001 18.3217 115.595C20.3147 106.19 32.9924 111.676 39.0821 115.595C33.8228 111.956 24.1346 102.495 27.4563 93.7615C30.778 85.0279 43.7879 88.4429 49.8776 91.2422C47.94 85.0839 44.0647 71.2557 44.0647 65.2094C44.0647 57.8158 58.3695 63.2807 61.3236 68.2389C59.2601 63.9344 51.5313 46.5673 58.1819 45.8948C66.4866 45.055 76.4511 51.7732 78.9423 54.2925C81.4335 56.8118 75.6221 39.1767 91.3994 37.4971C98.394 36.7525 101.461 38.7244 102.523 41.2977C103.231 35.8556 105.186 30.5527 109.668 32.4585C115.605 34.9835 117.597 38.6949 117.928 40.5271Z" fill="white"/>
<path d="M118.732 182.935C59.9091 179.475 80.0085 124.941 86.6973 95.4881C107.456 91.4997 150.494 85.9158 156.584 95.4881C164.195 107.454 185.743 186.876 118.732 182.935Z" fill="#F68E3E"/>
<path d="M121.137 174.875C69.034 171.82 86.8372 123.671 92.7619 97.6664C111.149 94.1449 149.271 89.2148 154.664 97.6664C161.406 108.231 180.493 178.355 121.137 174.875Z" fill="#F1A652"/>
<path d="M69.3188 77.7947C71.2898 74.2785 84.6493 73.1331 91.0826 72.9999C93.6833 76.3296 96.9137 83.7881 89.0294 86.9846C79.1741 90.9803 66.8549 82.1899 69.3188 77.7947Z" fill="#FE6A75"/>
<path d="M171.959 73.5027C170.19 70.781 155.249 72.3686 148 73.5027C148.246 78.9208 151.244 88.8499 161.27 85.221C173.802 80.6849 174.171 76.9047 171.959 73.5027Z" fill="#FE6A75"/>
<path d="M85.5146 90.2028C84.1306 74.9781 89.6668 51.4493 111.812 47.2971C127.356 44.3825 129.83 61.856 128.956 74.2861C132.238 68.7499 140.738 59.6151 148.489 67.3658C158.178 77.0542 162.33 92.9709 151.257 101.967C140.185 110.964 128.42 100.929 128.42 93.6629C119.424 117.192 86.8987 105.427 85.5146 90.2028Z" fill="#F23F3F"/>
<path d="M89.1754 88.4491C87.9545 75.2598 92.838 54.8764 112.372 51.2794C126.084 48.7544 128.266 63.8919 127.495 74.6603C130.39 69.8642 137.889 61.9506 144.726 68.6651C153.272 77.0583 156.934 90.8471 147.167 98.6408C137.4 106.434 127.023 97.7415 127.023 91.4466C119.087 111.83 90.3963 101.638 89.1754 88.4491Z" fill="#F4CED9"/>
<ellipse cx="139.493" cy="83.9746" rx="4.15217" ry="4.8442" fill="#151515"/>
<circle cx="138" cy="86" r="1" fill="white"/>
<ellipse cx="115.5" cy="83.5" rx="7.5" ry="8.5" fill="#151515"/>
<circle cx="121" cy="85" r="1" fill="white"/>
<path d="M114.802 137.714C107.183 148.516 108.612 168.24 107.66 169.179C116.707 173.875 126.231 166.362 131.469 159.317C136.707 152.273 138.135 134.427 135.278 128.792C132.421 123.156 122.421 126.913 114.802 137.714Z" fill="#E15F68"/>
<path d="M128.222 131.631C116.712 135.378 114.499 163.946 114.499 164.883C121.582 167.506 126.599 161.292 128.222 157.858C132.059 147.867 137.43 128.634 128.222 131.631Z" fill="#151515"/>
<path d="M127 160L115.5 157C114 161.5 111.675 166 117.5 166C123.325 166 126.393 161.87 127 160Z" fill="white"/>
<path d="M108.603 172.559C107.511 172.185 108.148 170.591 108.603 169.5C113.609 171.5 118.136 169.252 118.5 170C118.955 170.935 116.339 171.156 113.609 172.559C110.878 173.961 112.243 176.767 110.423 177.702C108.603 178.637 109.968 173.026 108.603 172.559Z" fill="white"/>
<path d="M95.5 61C97 62.6667 100 66.7 100 69.5C100.167 68.8333 100.9 67.7 102.5 68.5" stroke="#F23F3F" stroke-linecap="round"/>
<path d="M124 82.5C118 85 105.5 84 103 84C102 79.8333 102.2 71.3 111 70.5C119.8 69.7 123.334 78.1666 124 82.5Z" fill="#F4CED9"/>
<path d="M131 83.642C135.764 85.642 145.689 84.842 147.674 84.842C148.468 81.5088 148.309 74.6823 141.322 74.0423C134.335 73.4024 131.529 80.1755 131 83.642Z" fill="#F4CED9"/>
<ellipse cx="126.5" cy="113" rx="2.5" ry="4" fill="#E15F68"/>
<ellipse cx="133.5" cy="113" rx="2.5" ry="4" fill="#E15F68"/>
<path d="M109 89.8257C109.985 89.8257 118.358 85.4105 122.299 87.6181C126.239 89.8257 112.448 99.3921 109 89.8257Z" fill="#F4CED9"/>
<path d="M133 89.6147C133.774 89.6147 140.353 87.0917 143.449 88.3532C146.545 89.6147 135.709 95.0812 133 89.6147Z" fill="#F4CED9"/>
<path d="M126.733 114C124.999 116.059 123.052 120.33 129.134 120.948C135.215 121.565 134.335 116.573 133.135 114" stroke="white" stroke-linecap="round"/>
<path d="M88.5 92.5C90.0002 91.9374 92.4395 90.7101 94.5 88.9607M98 84C97.4751 85.9246 96.102 87.6005 94.5 88.9607M94.5 88.9607C96.5 89.1404 100.6 89.8 101 91" stroke="#F23F3F" stroke-linecap="round"/>
<path d="M126.5 58C125.283 59.0428 123.324 60.5748 121.5 61.6891M117.5 63C118.266 63.3829 119.826 62.712 121.5 61.6891M121.5 61.6891C121.167 62.9594 120.8 65.8 122 67" stroke="#F23F3F" stroke-linecap="round"/>
<path d="M151 71C149.783 72.0428 147.824 73.5748 146 74.6891M142 76C142.766 76.3829 144.326 75.712 146 74.6891M146 74.6891C145.667 75.9594 145.3 78.8 146.5 80" stroke="#F23F3F" stroke-linecap="round"/>
</g>
<path d="M51 24L61 35.5" stroke="white" stroke-width="10"/>
<path d="M40.0001 9.50004C35.6001 12.7 35.1668 17.8334 35.5001 20L51.5 9.00004C49.5 7.83337 44.4001 6.30004 40.0001 9.50004Z" fill="#00C1F3"/>
<path d="M43.3123 12.6717C16.9123 31.0717 19.3123 49.6717 23.8123 56.6717L88.3125 7.67174C84.3124 1.67174 69.7123 -5.72826 43.3123 12.6717Z" fill="#00F7C8"/>
<circle cx="39.5" cy="8.5" r="4.5" fill="#00F7C8"/>
<circle cx="39.5" cy="7.5" r="2.5" fill="white"/>
<path d="M190.312 24L180.312 35.5" stroke="white" stroke-width="10"/>
<path d="M201.312 9.50004C205.712 12.7 206.146 17.8334 205.812 20L189.812 9.00004C191.812 7.83337 196.912 6.30004 201.312 9.50004Z" fill="#00C1F3"/>
<path d="M198 12.6717C224.4 31.0717 222 49.6717 217.5 56.6717L153 7.67174C157 1.67174 171.6 -5.72826 198 12.6717Z" fill="#00F7C8"/>
<circle r="4.5" transform="matrix(-1 0 0 1 201.812 8.5)" fill="#00F7C8"/>
<circle r="2.5" transform="matrix(-1 0 0 1 201.812 7.5)" fill="white"/>
<defs>
<filter id="filter0_d" x="0" y="0" width="230" height="237" filterUnits="userSpaceOnUse" color-interpolation-filters="sRGB">
<feFlood flood-opacity="0" result="BackgroundImageFix"/>
<feColorMatrix in="SourceAlpha" type="matrix" values="0 0 0 0 0 0 0 0 0 0 0 0 0 0 0 0 0 0 127 0"/>
<feOffset/>
<feGaussianBlur stdDeviation="5"/>
<feColorMatrix type="matrix" values="0 0 0 0 0 0 0 0 0 0 0 0 0 0 0 0 0 0 0.4 0"/>
<feBlend mode="normal" in2="BackgroundImageFix" result="effect1_dropShadow"/>
<feBlend mode="normal" in="SourceGraphic" in2="effect1_dropShadow" result="shape"/>
</filter>
</defs>
</svg>
