<svg width="230" height="263" viewBox="0 0 230 263" fill="none" xmlns="http://www.w3.org/2000/svg">
<g filter="url(#filter0_d)">
<path d="M118.617 64.5808C117.232 54.0224 118.669 34.0794 135.313 36.1494C152.139 38.242 148.167 53.8783 144.077 61.4348C148.167 59.1097 157.573 55.5058 162.48 59.691C167.388 63.8762 164.525 72.479 162.48 76.2573C166.862 72.479 176.852 67.1894 181.759 76.2573C186.667 85.3252 180.883 91.6611 177.378 93.6955C188.478 89.6266 208.575 86.3715 200.162 105.902C198.471 109.828 196.704 112.81 194.928 115.033C204.391 114.986 212.371 117.435 209.801 125.956C205.595 139.907 196.365 145.138 192.275 146.01C201.33 148.045 217.513 154.729 209.801 165.192C205.024 171.674 200.448 173.137 197.033 172.689C208.123 178.446 223.087 189.453 219.441 200.94C215.156 214.443 195.735 218.678 188.223 216.478C192.316 220.342 197.211 226.898 196.657 234.073C195.956 243.141 180.591 234.364 172.996 228.842C172.704 235.817 168.44 250.291 153.717 252.383C138.994 254.476 135.313 237.561 135.313 228.842C132.977 238.433 125.149 256.568 112.53 252.383C102.81 249.159 102.864 244.349 105.005 240.981C100.949 245.141 94.6593 249.723 90.6225 246.28C85.7151 242.095 88.5777 236.398 90.6225 234.073C80.3987 238.142 60.8273 243.838 64.3326 234.073C66.257 228.712 69.1497 225.909 71.8508 224.567C59.2236 226.436 41.2746 227.325 40.6713 220.122C39.8691 210.544 44.2075 200.966 53.0141 199.415C37.2233 200.61 10 199.959 10 188.734C10 173.911 24.8974 165.192 32.7844 163.448C25.4817 160.542 11.4021 152.288 13.5053 142.522C15.6085 132.757 28.987 138.454 35.4133 142.522C29.8633 138.744 19.6395 128.921 23.1448 119.853C26.6501 110.785 40.3791 114.331 46.8055 117.237C44.7608 110.843 40.6713 96.4856 40.6713 90.2079C40.6713 82.5312 55.7668 88.2053 58.8842 93.3533C56.7067 88.884 48.5506 70.8522 55.5688 70.1539C64.3326 69.282 74.8479 76.2573 77.4768 78.873C80.1057 81.4888 73.9731 63.1786 90.6225 61.4348C98.0037 60.6617 101.241 62.7091 102.361 65.3808C103.108 59.7305 105.172 54.2246 109.901 56.2034C116.166 58.825 118.268 62.6784 118.617 64.5808Z" fill="#DBDBDB"/>
<path d="M117.928 66.5271C116.615 56.358 117.977 37.1502 133.749 39.1439C149.693 41.1594 145.929 56.2192 142.054 63.4971C145.93 61.2578 154.843 57.7867 159.493 61.8176C164.143 65.8485 161.431 74.1342 159.493 77.7732C163.645 74.1342 173.112 69.0396 177.762 77.7732C182.413 86.5067 176.932 92.609 173.61 94.5685C184.129 90.6496 203.173 87.5145 195.201 106.325C193.599 110.106 191.925 112.978 190.241 115.119C199.208 115.074 206.77 117.433 204.336 125.64C200.35 139.076 191.603 144.115 187.727 144.954C196.308 146.914 211.643 153.352 204.336 163.429C199.808 169.672 195.472 171.081 192.236 170.65C202.745 176.195 216.925 186.796 213.47 197.86C209.409 210.864 191.006 214.943 183.887 212.824C187.767 216.546 192.405 222.861 191.879 229.771C191.215 238.504 176.655 230.051 169.458 224.732C169.182 231.45 165.14 245.39 151.189 247.406C137.237 249.421 133.749 233.13 133.749 224.732C131.535 233.97 124.117 251.437 112.159 247.406C102.948 244.301 103 239.668 105.028 236.424C101.185 240.431 95.2247 244.843 91.3994 241.528C86.749 237.497 89.4617 232.01 91.3994 229.771C81.7111 233.69 63.1649 239.176 66.4866 229.771C68.3102 224.607 71.0514 221.907 73.611 220.615C61.6452 222.416 44.6364 223.271 44.0647 216.335C43.3045 207.11 47.4156 197.885 55.761 196.39C40.7973 197.541 15 196.914 15 186.103C15 171.827 29.117 163.429 36.5909 161.75C29.6707 158.951 16.3287 151.001 18.3217 141.595C20.3147 132.19 32.9924 137.676 39.0821 141.595C33.8228 137.956 24.1346 128.495 27.4563 119.761C30.778 111.028 43.7879 114.443 49.8776 117.242C47.94 111.084 44.0647 97.2557 44.0647 91.2094C44.0647 83.8158 58.3695 89.2807 61.3236 94.2389C59.2601 89.9344 51.5313 72.5673 58.1819 71.8948C66.4866 71.055 76.4511 77.7732 78.9423 80.2925C81.4335 82.8118 75.6221 65.1767 91.3994 63.4971C98.394 62.7525 101.461 64.7244 102.523 67.2977C103.231 61.8556 105.186 56.5527 109.668 58.4585C115.605 60.9835 117.597 64.6949 117.928 66.5271Z" fill="white"/>
<path d="M118.732 208.935C59.9091 205.475 80.0085 150.941 86.6973 121.488C107.456 117.5 150.494 111.916 156.584 121.488C164.195 133.454 185.743 212.876 118.732 208.935Z" fill="#F68E3E"/>
<path d="M121.137 200.875C69.034 197.82 86.8372 149.671 92.7619 123.666C111.149 120.145 149.271 115.215 154.664 123.666C161.406 134.231 180.493 204.355 121.137 200.875Z" fill="#F1A652"/>
<path d="M69.3188 103.795C71.2898 100.278 84.6493 99.1331 91.0826 98.9999C93.6833 102.33 96.9137 109.788 89.0294 112.985C79.1741 116.98 66.8549 108.19 69.3188 103.795Z" fill="#FE6A75"/>
<path d="M171.959 99.5027C170.19 96.781 155.249 98.3686 148 99.5027C148.246 104.921 151.244 114.85 161.27 111.221C173.802 106.685 174.171 102.905 171.959 99.5027Z" fill="#FE6A75"/>
<path d="M85.2 116.21C83.8075 100.992 89.3778 77.4728 111.659 73.3223C127.299 70.4089 129.788 87.8753 128.909 100.3C132.21 94.7663 140.764 85.6353 148.562 93.3829C158.31 103.067 162.488 118.977 151.347 127.97C140.207 136.963 128.37 126.932 128.37 119.669C119.318 143.189 86.5926 131.429 85.2 116.21Z" fill="#999999"/>
<path d="M87.1863 115.33C85.8891 101.126 91.0779 79.1745 111.833 75.3007C126.402 72.5815 128.72 88.8835 127.901 100.48C130.977 95.3151 138.944 86.7928 146.208 94.0239C155.289 103.063 159.18 117.912 148.803 126.305C138.425 134.699 127.399 125.337 127.399 118.558C118.968 140.509 88.4835 129.533 87.1863 115.33Z" fill="white"/>
<circle cx="114" cy="109" r="1" fill="white"/>
<ellipse cx="126.5" cy="139" rx="2.5" ry="4" fill="#E15F68"/>
<ellipse cx="133.5" cy="139" rx="2.5" ry="4" fill="#E15F68"/>
</g>
<path d="M116.349 107.132L109.973 105.218C109.235 105 108.721 104.292 108.721 103.505C108.721 102.518 109.5 101.719 110.463 101.719H114.377C115.097 101.719 115.806 101.943 116.396 102.354C116.756 102.603 117.241 102.542 117.548 102.233L119.602 100.175C120.021 99.757 119.962 99.0607 119.496 98.6914C118.049 97.5289 116.243 96.8811 114.389 96.875V93.9688C114.389 93.4359 113.964 93 113.444 93H111.555C111.035 93 110.61 93.4359 110.61 93.9688V96.875H110.463C106.702 96.875 103.679 100.187 104.027 104.116C104.275 106.908 106.354 109.178 108.975 109.965L115.027 111.782C115.765 112.006 116.278 112.708 116.278 113.495C116.278 114.482 115.499 115.281 114.537 115.281H110.622C109.902 115.281 109.193 115.057 108.603 114.646C108.243 114.397 107.759 114.458 107.452 114.767L105.397 116.825C104.978 117.243 105.037 117.939 105.503 118.309C106.95 119.471 108.757 120.119 110.61 120.125V123.031C110.61 123.564 111.035 124 111.555 124H113.444C113.964 124 114.389 123.564 114.389 123.031V120.113C117.14 120.058 119.72 118.381 120.63 115.711C121.899 111.981 119.768 108.155 116.349 107.132Z" fill="#00F7C8"/>
<path d="M140.991 110.661L136.865 109.489C136.387 109.355 136.055 108.921 136.055 108.438C136.055 107.834 136.559 107.344 137.182 107.344H139.715C140.181 107.344 140.639 107.481 141.021 107.733C141.254 107.886 141.567 107.848 141.766 107.659L143.096 106.397C143.367 106.141 143.329 105.715 143.027 105.488C142.091 104.776 140.922 104.379 139.722 104.375V102.594C139.722 102.267 139.447 102 139.111 102H137.889C137.552 102 137.277 102.267 137.277 102.594V104.375H137.182C134.748 104.375 132.792 106.405 133.018 108.813C133.178 110.524 134.523 111.916 136.219 112.398L140.135 113.511C140.612 113.649 140.945 114.079 140.945 114.562C140.945 115.166 140.44 115.656 139.818 115.656H137.285C136.819 115.656 136.36 115.519 135.978 115.267C135.745 115.114 135.432 115.152 135.233 115.341L133.904 116.603C133.633 116.859 133.671 117.285 133.973 117.512C134.909 118.224 136.078 118.621 137.277 118.625V120.406C137.277 120.733 137.552 121 137.889 121H139.111C139.447 121 139.722 120.733 139.722 120.406V118.618C141.503 118.584 143.172 117.556 143.76 115.92C144.582 113.634 143.203 111.288 140.991 110.661Z" fill="#00F7C8"/>
<path d="M147.162 166.18C123.087 174.028 104.028 167.997 97.5078 164C96.5047 164 95 164.363 95 167.27C95 170.176 110.548 188.706 125.093 187.979C139.639 187.253 148.165 172.356 149.67 168.723C150.873 165.817 148.499 165.817 147.162 166.18Z" fill="#E15F68"/>
<circle cx="121" cy="109" r="5" fill="white"/>
<circle cx="143" cy="111" r="3" fill="white"/>
<path d="M96.9995 168C105.371 171.912 126.703 177.476 148 169.262C140.968 180.606 121.51 196.398 96.9995 168Z" fill="#151515"/>
<path d="M174.404 184.323C172.808 185.489 166.531 185.646 154.192 176.95C141.853 168.254 123.61 176.168 116.031 181.211C136.002 189.055 147.256 206.119 150.386 213.671C150.398 211.694 152.097 206.813 158.794 203.102C165.491 199.391 171.991 189.036 174.404 184.323Z" fill="#33915F"/>
<path d="M170.5 186.5C169.14 187.493 162.883 184.883 152.368 177.473C141.853 170.062 126.307 176.806 119.849 181.104C136.867 187.788 146.457 202.33 149.125 208.765C149.135 207.08 150.583 202.921 156.29 199.759C161.997 196.596 168.444 190.517 170.5 186.5Z" fill="#4FB880"/>
<path d="M154 202.5C150 195.7 146.333 199.667 145 202.5L149 210L154 202.5Z" fill="#33915F"/>
<path d="M167 192.5C161.4 189.3 163.333 185.833 165 184.5L172.5 186L167 192.5Z" fill="#33915F"/>
<path d="M125.5 184.5C128.7 181.3 125.833 178.833 124 178L117.5 181L125.5 184.5Z" fill="#33915F"/>
<circle cx="137.5" cy="177.5" r="3.5" fill="#33915F"/>
<path d="M123 173.5C123 176.167 122.224 181.345 117.999 180.5C112.999 179.5 114 174.167 114.5 172.5C113.167 175.167 110.731 179.299 106.999 176.5C105.559 175.42 105.675 173.215 106.226 171.942C104.844 173.616 103.509 175.009 102 173.5C98.5 170 97.5 170 97 168L107 171L114.5 172.5L123 173.5L133 173L140.999 171.5L148.5 168.5C147.5 170.667 146.572 172.963 145.499 173.5C142.499 175 141.499 172.333 140.999 171.5C140.832 174 141.499 177.5 138.499 178.5C135.46 179.513 133.606 176.477 133.079 174.473C133.149 176.96 132.795 180.088 129.499 180.5C123.545 181.244 123.833 175 123 173.5Z" fill="white"/>
<path d="M147.504 185.398L146.007 182.673C145.832 182.359 145.887 181.967 146.135 181.721C146.447 181.413 146.957 181.423 147.274 181.744L148.564 183.05C148.802 183.29 148.964 183.597 149.029 183.922C149.069 184.12 149.248 184.263 149.447 184.269L150.774 184.311C151.045 184.321 151.245 184.084 151.208 183.813C151.099 182.967 150.708 182.162 150.099 181.542L151.017 180.634C151.186 180.468 151.183 180.19 151.012 180.017L150.389 179.386C150.218 179.213 149.94 179.207 149.772 179.374L148.853 180.281L148.805 180.232C147.565 178.977 145.522 179.003 144.395 180.346C143.595 181.3 143.562 182.702 144.178 183.823L145.598 186.409C145.771 186.725 145.718 187.116 145.47 187.361C145.158 187.669 144.648 187.659 144.331 187.338L143.041 186.032C142.803 185.792 142.641 185.485 142.576 185.16C142.536 184.962 142.357 184.82 142.158 184.814L140.83 184.771C140.56 184.762 140.36 184.999 140.397 185.27C140.506 186.115 140.897 186.92 141.506 187.541L140.588 188.448C140.419 188.614 140.422 188.892 140.593 189.066L141.216 189.696C141.387 189.869 141.665 189.875 141.833 189.709L142.756 188.797C143.68 189.698 145.06 190.035 146.204 189.505C147.801 188.764 148.307 186.858 147.504 185.398Z" fill="white"/>
<circle cx="154.5" cy="190.5" r="3.5" fill="#33915F"/>
<path d="M126.733 141C124.999 143.059 123.052 147.33 129.134 147.948C135.215 148.565 134.335 143.573 133.135 141" stroke="white" stroke-linecap="round"/>
<path d="M74.9781 54C76.5547 52.108 77.4745 41.3869 77.7372 36.2628C46.5197 22.073 31.0949 6.17518 27.2847 0C20.4526 9.45985 6.63066 28.4584 6 28.7737C7.57664 35.3956 52.6423 48.3504 74.9781 54Z" fill="#33915F"/>
<path d="M70.2178 50.8468C71.5866 49.1896 72.385 39.7988 72.6131 35.3105C45.5122 22.8815 32.1214 8.9564 28.8137 3.54749C22.8825 11.8335 10.8832 28.4745 10.3358 28.7507C11.7045 34.5509 50.8274 45.8982 70.2178 50.8468Z" fill="#4FB880"/>
<path d="M73.4014 42.1752C65.5182 39.0219 66.4379 34.292 67.8832 32.3212L74.1898 35.0803L73.4014 42.1752Z" fill="#33915F"/>
<path d="M62.7591 49.6643C65.5971 42.727 71.0365 44.6716 73.4014 46.511L71.4307 52.0292L62.7591 49.6643Z" fill="#33915F"/>
<path d="M13.4891 33.1095C20.111 28.6949 15.4599 24.7008 12.3066 23.2555L7.97081 28.7737L13.4891 33.1095Z" fill="#33915F"/>
<path d="M28.073 1.97083C27.1533 3.41608 25.235 6.46426 24.9197 7.09491L22.5548 9.85404C26.9694 15.5299 32.0146 11.4307 33.9854 8.67156L28.073 1.97083Z" fill="#33915F"/>
<path d="M46.2377 31.9906L43.8224 29.7407C43.5421 29.4817 43.4666 29.0677 43.6358 28.7373C43.8479 28.3229 44.3651 28.1641 44.7917 28.3825L46.5268 29.2705C46.8461 29.4339 47.112 29.6887 47.2852 29.9955C47.3915 30.1815 47.6191 30.2659 47.8216 30.2059L49.1747 29.8077C49.4503 29.7274 49.5737 29.4216 49.4464 29.1607C49.055 28.3445 48.3934 27.6626 47.5729 27.2395L48.1975 26.0192C48.312 25.7955 48.2172 25.516 47.9869 25.3981L47.1494 24.9695C46.9191 24.8516 46.637 24.9382 46.5225 25.1619L45.898 26.3822L45.8326 26.3487C44.1655 25.4955 42.1138 26.2002 41.4238 27.9292C40.9339 29.1574 41.3672 30.5822 42.36 31.5074L44.6522 33.643C44.9312 33.9045 45.0079 34.3159 44.8388 34.6464C44.6267 35.0607 44.1095 35.2195 43.6829 35.0012L41.9478 34.1131C41.6285 33.9497 41.3626 33.6949 41.1894 33.3881C41.0831 33.2022 40.8555 33.1177 40.653 33.1777L39.2999 33.5759C39.0243 33.6563 38.9008 33.962 39.0282 34.2229C39.4196 35.0392 40.0812 35.721 40.9017 36.1442L40.2771 37.3644C40.1626 37.5881 40.2574 37.8676 40.4877 37.9855L41.3251 38.4141C41.5554 38.532 41.8376 38.4454 41.9521 38.2217L42.5792 36.9963C43.8105 37.5977 45.3145 37.4788 46.2914 36.564C47.6555 35.286 47.5331 33.1958 46.2377 31.9906Z" fill="white"/>
<defs>
<filter id="filter0_d" x="0" y="26" width="230" height="237" filterUnits="userSpaceOnUse" color-interpolation-filters="sRGB">
<feFlood flood-opacity="0" result="BackgroundImageFix"/>
<feColorMatrix in="SourceAlpha" type="matrix" values="0 0 0 0 0 0 0 0 0 0 0 0 0 0 0 0 0 0 127 0"/>
<feOffset/>
<feGaussianBlur stdDeviation="5"/>
<feColorMatrix type="matrix" values="0 0 0 0 0 0 0 0 0 0 0 0 0 0 0 0 0 0 0.4 0"/>
<feBlend mode="normal" in2="BackgroundImageFix" result="effect1_dropShadow"/>
<feBlend mode="normal" in="SourceGraphic" in2="effect1_dropShadow" result="shape"/>
</filter>
</defs>
</svg>
